  0
SECTION
  2
HEADER
  9
$ACADVER
  1
AC1014
  9
$HANDSEED
  5
FFFF
  9
$MEASUREMENT
 70
     1
  0
ENDSEC
  0
SECTION
  2
TABLES
  0
TABLE
  2
VPORT
  5
8
330
0
100
AcDbSymbolTable
 70
     4
  0
VPORT
  5
2E
330
8
100
AcDbSymbolTableRecord
100
AcDbViewportTableRecord
  2
*ACTIVE
 70
     0
 10
0.0
 20
0.0
 11
1.0
 21
1.0
 12
210.0
 22
148.5
 13
0.0
 23
0.0
 14
10.0
 24
10.0
 15
10.0
 25
10.0
 16
0.0
 26
0.0
 36
1.0
 17
0.0
 27
0.0
 37
0.0
 40
341.0
 41
1.24
 42
50.0
 43
0.0
 44
0.0
 50
0.0
 51
0.0
 71
     0
 72
   100
 73
     1
 74
     3
 75
     0
 76
     0
 77
     0
 78
     0
  0
ENDTAB
  0
TABLE
  2
LTYPE
  5
5
330
0
100
AcDbSymbolTable
 70
     1
  0
LTYPE
  5
14
330
5
100
AcDbSymbolTableRecord
100
AcDbLinetypeTableRecord
  2
BYBLOCK
 70
     0
  3

 72
    65
 73
     0
 40
0.0
  0
LTYPE
  5
15
330
5
100
AcDbSymbolTableRecord
100
AcDbLinetypeTableRecord
  2
BYLAYER
 70
     0
  3

 72
    65
 73
     0
 40
0.0
  0
LTYPE
  5
16
330
5
100
AcDbSymbolTableRecord
100
AcDbLinetypeTableRecord
  2
CONTINUOUS
 70
     0
  3
Solid line
 72
    65
 73
     0
 40
0.0
  0
ENDTAB
  0
TABLE
  2
LAYER
  5
2
100
AcDbSymbolTable
 70
2
  0
LAYER
  5
50
100
AcDbSymbolTableRecord
100
AcDbLayerTableRecord
  2
0
 70
0
  6
CONTINUOUS
  0
LAYER
  5
51
100
AcDbSymbolTableRecord
100
AcDbLayerTableRecord
  2
Ebene_1
 70
0
  6
CONTINUOUS
  0
ENDTAB
  0
TABLE
  2
STYLE
  5
3
330
0
100
AcDbSymbolTable
 70
     1
  0
STYLE
  5
11
330
3
100
AcDbSymbolTableRecord
100
AcDbTextStyleTableRecord
  2
STANDARD
 70
     0
 40
0.0
 41
1.0
 50
0.0
 71
     0
 42
2.5
  3
txt
  4

  0
ENDTAB
  0
TABLE
  2
VIEW
  5
6
330
0
100
AcDbSymbolTable
 70
     0
  0
ENDTAB
  0
TABLE
  2
UCS
  5
7
330
0
100
AcDbSymbolTable
 70
     0
  0
ENDTAB
  0
TABLE
  2
APPID
  5
9
330
0
100
AcDbSymbolTable
 70
     2
  0
APPID
  5
12
330
9
100
AcDbSymbolTableRecord
100
AcDbRegAppTableRecord
  2
ACAD
 70
     0
  0
ENDTAB
  0
TABLE
  2
DIMSTYLE
  5
A
330
0
100
AcDbSymbolTable
 70
     1
  0
DIMSTYLE
105
27
330
A
100
AcDbSymbolTableRecord
100
AcDbDimStyleTableRecord
  2
ISO-25
 70
     0
  3

  4

  5

  6

  7

 40
1.0
 41
2.5
 42
0.625
 43
3.75
 44
1.25
 45
0.0
 46
0.0
 47
0.0
 48
0.0
140
2.5
141
2.5
142
0.0
143
0.03937007874016
144
1.0
145
0.0
146
1.0
147
0.625
 71
     0
 72
     0
 73
     0
 74
     0
 75
     0
 76
     0
 77
     1
 78
     8
170
     0
171
     3
172
     1
173
     0
174
     0
175
     0
176
     0
177
     0
178
     0
270
     2
271
     2
272
     2
273
     2
274
     3
340
11
275
     0
280
     0
281
     0
282
     0
283
     0
284
     8
285
     0
286
     0
287
     3
288
     0
  0
ENDTAB
  0
TABLE
  2
BLOCK_RECORD
  5
1
330
0
100
AcDbSymbolTable
 70
     1
  0
BLOCK_RECORD
  5
1F
330
1
100
AcDbSymbolTableRecord
100
AcDbBlockTableRecord
  2
*MODEL_SPACE
  0
BLOCK_RECORD
  5
1B
330
1
100
AcDbSymbolTableRecord
100
AcDbBlockTableRecord
  2
*PAPER_SPACE
  0
ENDTAB
  0
ENDSEC
  0
SECTION
  2
BLOCKS
  0
BLOCK
  5
20
330
1F
100
AcDbEntity
  8
0
100
AcDbBlockBegin
  2
*MODEL_SPACE
 70
     0
 10
0.0
 20
0.0
 30
0.0
  3
*MODEL_SPACE
  1

  0
ENDBLK
  5
21
330
1F
100
AcDbEntity
  8
0
100
AcDbBlockEnd
  0
BLOCK
  5
1C
330
1B
100
AcDbEntity
 67
     1
  8
0
100
AcDbBlockBegin
  2
*PAPER_SPACE
  1

  0
ENDBLK
  5
1D
330
1B
100
AcDbEntity
 67
     1
  8
0
100
AcDbBlockEnd
  0
ENDSEC
  0
SECTION
  2
ENTITIES
  0
SPLINE
  5
100
100
AcDbEntity
  8
Ebene_1
 62
7
100
AcDbSpline
 70
8
 71
3
 72
8
 73
4
 74
0
 40
0
 40
0
 40
0
 40
0
 40
1
 40
1
 40
1
 40
1
 10
9.632813
 20
16.089840
 30
0.0
 10
9.327617
 20
16.083840
 30
0.0
 10
9.084616
 20
15.832540
 30
0.0
 10
9.089844
 20
15.527340
 30
0.0
  0
SPLINE
  5
101
100
AcDbEntity
  8
Ebene_1
 62
7
100
AcDbSpline
 70
8
 71
3
 72
8
 73
4
 74
0
 40
0
 40
0
 40
0
 40
0
 40
1
 40
1
 40
1
 40
1
 10
10.197260
 20
15.531310
 30
0.0
 10
10.200460
 20
15.843410
 30
0.0
 10
9.944861
 20
16.096310
 30
0.0
 10
9.632806
 20
16.089900
 30
0.0
  0
LWPOLYLINE
  5
102
100
AcDbEntity
  8
Ebene_1
 62
7
100
AcDbPolyline
 90
4
 70
0
 10
9.089844
 20
15.527340
 30
0.0
 10
9.108675
 20
10.781790
 30
0.0
 10
10.214280
 20
10.748690
 30
0.0
 10
10.197260
 20
15.531310
 30
0.0
  0
SPLINE
  5
103
100
AcDbEntity
  8
Ebene_1
 62
7
100
AcDbSpline
 70
8
 71
3
 72
8
 73
4
 74
0
 40
0
 40
0
 40
0
 40
0
 40
1
 40
1
 40
1
 40
1
 10
11.009766
 20
15.523440
 30
0.0
 10
10.704570
 20
15.517440
 30
0.0
 10
10.461569
 20
15.266140
 30
0.0
 10
10.466797
 20
14.960940
 30
0.0
  0
LWPOLYLINE
  5
104
100
AcDbEntity
  8
Ebene_1
 62
7
100
AcDbPolyline
 90
1
 70
1
 10
9.632806
 20
16.089900
 30
0.0
  0
SPLINE
  5
105
100
AcDbEntity
  8
Ebene_1
 62
7
100
AcDbSpline
 70
8
 71
3
 72
8
 73
4
 74
0
 40
0
 40
0
 40
0
 40
0
 40
1
 40
1
 40
1
 40
1
 10
11.572271
 20
14.964890
 30
0.0
 10
11.575371
 20
15.276220
 30
0.0
 10
11.321068
 20
15.528790
 30
0.0
 10
11.009771
 20
15.523490
 30
0.0
  0
LWPOLYLINE
  5
106
100
AcDbEntity
  8
Ebene_1
 62
7
100
AcDbPolyline
 90
4
 70
0
 10
10.466797
 20
14.960940
 30
0.0
 10
10.481797
 20
10.747740
 30
0.0
 10
11.587381
 20
10.719540
 30
0.0
 10
11.572271
 20
14.964890
 30
0.0
  0
SPLINE
  5
107
100
AcDbEntity
  8
Ebene_1
 62
7
100
AcDbSpline
 70
8
 71
3
 72
8
 73
4
 74
0
 40
0
 40
0
 40
0
 40
0
 40
1
 40
1
 40
1
 40
1
 10
12.419922
 20
14.123050
 30
0.0
 10
12.113946
 20
14.117050
 30
0.0
 10
11.870628
 20
13.864550
 30
0.0
 10
11.876953
 20
13.558590
 30
0.0
  0
LWPOLYLINE
  5
108
100
AcDbEntity
  8
Ebene_1
 62
7
100
AcDbPolyline
 90
1
 70
1
 10
11.009771
 20
15.523490
 30
0.0
  0
SPLINE
  5
109
100
AcDbEntity
  8
Ebene_1
 62
7
100
AcDbSpline
 70
8
 71
3
 72
8
 73
4
 74
0
 40
0
 40
0
 40
0
 40
0
 40
1
 40
1
 40
1
 40
1
 10
12.984299
 20
13.562630
 30
0.0
 10
12.988599
 20
13.875500
 30
0.0
 10
12.732680
 20
14.129620
 30
0.0
 10
12.419846
 20
14.123180
 30
0.0
  0
LWPOLYLINE
  5
10a
100
AcDbEntity
  8
Ebene_1
 62
7
100
AcDbPolyline
 90
4
 70
0
 10
11.876953
 20
13.558590
 30
0.0
 10
11.887683
 20
10.715630
 30
0.0
 10
12.993399
 20
10.692930
 30
0.0
 10
12.984299
 20
13.562630
 30
0.0
  0
SPLINE
  5
10b
100
AcDbEntity
  8
Ebene_1
 62
7
100
AcDbSpline
 70
8
 71
3
 72
8
 73
4
 74
0
 40
0
 40
0
 40
0
 40
0
 40
1
 40
1
 40
1
 40
1
 10
13.792969
 20
14.486330
 30
0.0
 10
13.487773
 20
14.480330
 30
0.0
 10
13.244772
 20
14.229030
 30
0.0
 10
13.250000
 20
13.923830
 30
0.0
  0
LWPOLYLINE
  5
10c
100
AcDbEntity
  8
Ebene_1
 62
7
100
AcDbPolyline
 90
2
 70
0
 10
12.419846
 20
14.123180
 30
0.0
 10
12.419922
 20
14.123050
 30
0.0
  0
SPLINE
  5
10d
100
AcDbEntity
  8
Ebene_1
 62
7
100
AcDbSpline
 70
8
 71
3
 72
8
 73
4
 74
0
 40
0
 40
0
 40
0
 40
0
 40
1
 40
1
 40
1
 40
1
 10
14.355475
 20
13.927870
 30
0.0
 10
14.358575
 20
14.239200
 30
0.0
 10
14.104272
 20
14.491770
 30
0.0
 10
13.792975
 20
14.486470
 30
0.0
  0
LWPOLYLINE
  5
10e
100
AcDbEntity
  8
Ebene_1
 62
7
100
AcDbPolyline
 90
4
 70
0
 10
13.250000
 20
13.923830
 30
0.0
 10
13.260450
 20
10.682550
 30
0.0
 10
14.366005
 20
10.659850
 30
0.0
 10
14.355475
 20
13.927870
 30
0.0
  0
SPLINE
  5
10f
100
AcDbEntity
  8
Ebene_1
 62
7
100
AcDbSpline
 70
8
 71
3
 72
8
 73
4
 74
0
 40
0
 40
0
 40
0
 40
0
 40
1
 40
1
 40
1
 40
1
 10
15.228516
 20
16.324220
 30
0.0
 10
14.923427
 20
16.318220
 30
0.0
 10
14.680568
 20
16.066820
 30
0.0
 10
14.685547
 20
15.761720
 30
0.0
  0
LWPOLYLINE
  5
110
100
AcDbEntity
  8
Ebene_1
 62
7
100
AcDbPolyline
 90
2
 70
0
 10
13.792975
 20
14.486470
 30
0.0
 10
13.792969
 20
14.486330
 30
0.0
  0
SPLINE
  5
111
100
AcDbEntity
  8
Ebene_1
 62
7
100
AcDbSpline
 70
8
 71
3
 72
8
 73
4
 74
0
 40
0
 40
0
 40
0
 40
0
 40
1
 40
1
 40
1
 40
1
 10
15.792970
 20
15.763730
 30
0.0
 10
15.796970
 20
16.076490
 30
0.0
 10
15.541245
 20
16.330460
 30
0.0
 10
15.228517
 20
16.324280
 30
0.0
  0
LWPOLYLINE
  5
112
100
AcDbEntity
  8
Ebene_1
 62
7
100
AcDbPolyline
 90
4
 70
0
 10
14.685547
 20
15.761720
 30
0.0
 10
14.700347
 20
10.651540
 30
0.0
 10
15.807840
 20
10.628840
 30
0.0
 10
15.792970
 20
15.763730
 30
0.0
  0
SPLINE
  5
113
100
AcDbEntity
  8
Ebene_1
 62
7
100
AcDbSpline
 70
8
 71
3
 72
8
 73
4
 74
0
 40
0
 40
0
 40
0
 40
0
 40
1
 40
1
 40
1
 40
1
 10
16.634766
 20
15.771480
 30
0.0
 10
16.329570
 20
15.765480
 30
0.0
 10
16.086569
 20
15.514180
 30
0.0
 10
16.091797
 20
15.208980
 30
0.0
  0
LWPOLYLINE
  5
114
100
AcDbEntity
  8
Ebene_1
 62
7
100
AcDbPolyline
 90
1
 70
1
 10
15.228517
 20
16.324280
 30
0.0
  0
SPLINE
  5
115
100
AcDbEntity
  8
Ebene_1
 62
7
100
AcDbSpline
 70
8
 71
3
 72
8
 73
4
 74
0
 40
0
 40
0
 40
0
 40
0
 40
1
 40
1
 40
1
 40
1
 10
17.197267
 20
15.212970
 30
0.0
 10
17.200367
 20
15.524290
 30
0.0
 10
16.946060
 20
15.776860
 30
0.0
 10
16.634767
 20
15.771560
 30
0.0
  0
LWPOLYLINE
  5
116
100
AcDbEntity
  8
Ebene_1
 62
7
100
AcDbPolyline
 90
4
 70
0
 10
16.091797
 20
15.208980
 30
0.0
 10
16.108227
 20
10.624690
 30
0.0
 10
17.213807
 20
10.597790
 30
0.0
 10
17.197267
 20
15.212970
 30
0.0
  0
LWPOLYLINE
  5
117
100
AcDbEntity
  8
Ebene_1
 62
7
100
AcDbPolyline
 90
1
 70
1
 10
16.634767
 20
15.771560
 30
0.0
  0
SPLINE
  5
118
100
AcDbEntity
  8
Ebene_1
 62
7
100
AcDbSpline
 70
8
 71
3
 72
8
 73
4
 74
0
 40
0
 40
0
 40
0
 40
0
 40
1
 40
1
 40
1
 40
1
 10
1.160429
 20
12.880502
 30
0.0
 10
0.556617
 20
13.249444
 30
0.0
 10
0.327186
 20
14.013668
 30
0.0
 10
0.627947
 20
14.654176
 30
0.0
  0
SPLINE
  5
119
100
AcDbEntity
  8
Ebene_1
 62
7
100
AcDbSpline
 70
8
 71
3
 72
8
 73
4
 74
0
 40
0
 40
0
 40
0
 40
0
 40
1
 40
1
 40
1
 40
1
 10
0.627947
 20
14.654176
 30
0.0
 10
0.928706
 20
15.294686
 30
0.0
 10
1.663287
 20
15.606246
 30
0.0
 10
2.332823
 20
15.377269
 30
0.0
  0
SPLINE
  5
11a
100
AcDbEntity
  8
Ebene_1
 62
7
100
AcDbSpline
 70
8
 71
3
 72
8
 73
4
 74
0
 40
0
 40
0
 40
0
 40
0
 40
1
 40
1
 40
1
 40
1
 10
2.332823
 20
15.377269
 30
0.0
 10
3.002358
 20
15.148292
 30
0.0
 10
3.392312
 20
14.452149
 30
0.0
 10
3.237859
 20
13.761605
 30
0.0
  0
SPLINE
  5
11b
100
AcDbEntity
  8
Ebene_1
 62
7
100
AcDbSpline
 70
8
 71
3
 72
8
 73
4
 74
0
 40
0
 40
0
 40
0
 40
0
 40
1
 40
1
 40
1
 40
1
 10
3.466537
 20
9.923040
 30
0.0
 10
3.466537
 20
9.923040
 30
0.0
 10
4.232368
 20
8.808700
 30
0.0
 10
4.722656
 20
8.701170
 30
0.0
  0
SPLINE
  5
11c
100
AcDbEntity
  8
Ebene_1
 62
7
100
AcDbSpline
 70
8
 71
3
 72
8
 73
4
 74
0
 40
0
 40
0
 40
0
 40
0
 40
1
 40
1
 40
1
 40
1
 10
4.722656
 20
8.701170
 30
0.0
 10
5.244509
 20
8.586730
 30
0.0
 10
5.763744
 20
8.847760
 30
0.0
 10
6.089844
 20
9.322270
 30
0.0
  0
SPLINE
  5
11d
100
AcDbEntity
  8
Ebene_1
 62
7
100
AcDbSpline
 70
8
 71
3
 72
8
 73
4
 74
0
 40
0
 40
0
 40
0
 40
0
 40
1
 40
1
 40
1
 40
1
 10
6.089844
 20
9.322270
 30
0.0
 10
6.270931
 20
9.585770
 30
0.0
 10
6.772603
 20
9.783100
 30
0.0
 10
6.772603
 20
9.783100
 30
0.0
  0
LWPOLYLINE
  5
11e
100
AcDbEntity
  8
Ebene_1
 62
7
100
AcDbPolyline
 90
4
 70
1
 10
1.338659
 20
12.691430
 30
0.0
 10
3.289022
 20
13.518080
 30
0.0
 10
4.048941
 20
10.173580
 30
0.0
 10
3.255583
 20
9.827310
 30
0.0
  0
SPLINE
  5
11f
100
AcDbEntity
  8
Ebene_1
 62
7
100
AcDbSpline
 70
8
 71
3
 72
8
 73
4
 74
0
 40
0
 40
0
 40
0
 40
0
 40
1
 40
1
 40
1
 40
1
 10
6.763573
 20
10.285160
 30
0.0
 10
6.763573
 20
10.285160
 30
0.0
 10
5.980741
 20
10.026310
 30
0.0
 10
5.687496
 20
9.599610
 30
0.0
  0
SPLINE
  5
120
100
AcDbEntity
  8
Ebene_1
 62
7
100
AcDbSpline
 70
8
 71
3
 72
8
 73
4
 74
0
 40
0
 40
0
 40
0
 40
0
 40
1
 40
1
 40
1
 40
1
 10
5.687496
 20
9.599610
 30
0.0
 10
5.445187
 20
9.247030
 30
0.0
 10
5.140000
 20
9.111290
 30
0.0
 10
4.828121
 20
9.179690
 30
0.0
  0
SPLINE
  5
121
100
AcDbEntity
  8
Ebene_1
 62
7
100
AcDbSpline
 70
8
 71
3
 72
8
 73
4
 74
0
 40
0
 40
0
 40
0
 40
0
 40
1
 40
1
 40
1
 40
1
 10
4.828121
 20
9.179690
 30
0.0
 10
4.536316
 20
9.243690
 30
0.0
 10
3.915522
 20
10.118480
 30
0.0
 10
3.915522
 20
10.118480
 30
0.0
  0
LWPOLYLINE
  5
122
100
AcDbEntity
  8
Ebene_1
 62
7
100
AcDbPolyline
 90
2
 70
0
 10
6.772603
 20
9.783100
 30
0.0
 10
6.763573
 20
10.285160
 30
0.0
  0
SPLINE
  5
123
100
AcDbEntity
  8
Ebene_1
 62
7
100
AcDbSpline
 70
8
 71
3
 72
8
 73
4
 74
0
 40
0
 40
0
 40
0
 40
0
 40
1
 40
1
 40
1
 40
1
 10
18.554510
 20
17.546728
 30
0.0
 10
18.073453
 20
17.553163
 30
0.0
 10
17.617418
 20
17.255733
 30
0.0
 10
17.613596
 20
16.901667
 30
0.0
  0
LWPOLYLINE
  5
124
100
AcDbEntity
  8
Ebene_1
 62
7
100
AcDbPolyline
 90
2
 70
0
 10
3.915522
 20
10.118480
 30
0.0
 10
3.466537
 20
9.923040
 30
0.0
  0
SPLINE
  5
125
100
AcDbEntity
  8
Ebene_1
 62
7
100
AcDbSpline
 70
8
 71
3
 72
8
 73
4
 74
0
 40
0
 40
0
 40
0
 40
0
 40
1
 40
1
 40
1
 40
1
 10
8.585388
 20
16.901096
 30
0.0
 10
8.589975
 20
17.325981
 30
0.0
 10
8.125250
 20
17.534549
 30
0.0
 10
7.672490
 20
17.540606
 30
0.0
  0
SPLINE
  5
126
100
AcDbEntity
  8
Ebene_1
 62
7
100
AcDbSpline
 70
8
 71
3
 72
8
 73
4
 74
0
 40
0
 40
0
 40
0
 40
0
 40
1
 40
1
 40
1
 40
1
 10
7.672490
 20
17.540606
 30
0.0
 10
7.205581
 20
17.546852
 30
0.0
 10
6.736379
 20
17.340656
 30
0.0
 10
6.745942
 20
16.915589
 30
0.0
  0
LWPOLYLINE
  5
127
100
AcDbEntity
  8
Ebene_1
 62
7
100
AcDbPolyline
 90
7
 70
0
 10
17.613596
 20
16.901667
 30
0.0
 10
17.630355
 20
10.588017
 30
0.0
 10
12.993604
 20
10.691651
 30
0.0
 10
11.883302
 20
10.716482
 30
0.0
 10
10.481793
 20
10.747831
 30
0.0
 10
8.604329
 20
10.789775
 30
0.0
 10
8.585388
 20
16.901096
 30
0.0
  0
SPLINE
  5
128
100
AcDbEntity
  8
Ebene_1
 62
7
100
AcDbSpline
 70
8
 71
3
 72
8
 73
4
 74
0
 40
0
 40
0
 40
0
 40
0
 40
1
 40
1
 40
1
 40
1
 10
6.782030
 20
3.215781
 30
0.0
 10
6.777553
 20
2.801016
 30
0.0
 10
7.228020
 20
2.582517
 30
0.0
 10
7.680779
 20
2.576460
 30
0.0
  0
SPLINE
  5
129
100
AcDbEntity
  8
Ebene_1
 62
7
100
AcDbSpline
 70
8
 71
3
 72
8
 73
4
 74
0
 40
0
 40
0
 40
0
 40
0
 40
1
 40
1
 40
1
 40
1
 10
7.680779
 20
2.576460
 30
0.0
 10
8.147688
 20
2.570214
 30
0.0
 10
8.631148
 20
2.786342
 30
0.0
 10
8.621585
 20
3.211408
 30
0.0
  0
LWPOLYLINE
  5
12a
100
AcDbEntity
  8
Ebene_1
 62
7
100
AcDbPolyline
 90
2
 70
0
 10
6.745942
 20
16.915589
 30
0.0
 10
6.782030
 20
3.215781
 30
0.0
  0
SPLINE
  5
12b
100
AcDbEntity
  8
Ebene_1
 62
7
100
AcDbSpline
 70
8
 71
3
 72
8
 73
4
 74
0
 40
0
 40
0
 40
0
 40
0
 40
1
 40
1
 40
1
 40
1
 10
17.649690
 20
3.201935
 30
0.0
 10
17.645104
 20
2.777058
 30
0.0
 10
18.109829
 20
2.568481
 30
0.0
 10
18.562589
 20
2.562425
 30
0.0
  0
SPLINE
  5
12c
100
AcDbEntity
  8
Ebene_1
 62
7
100
AcDbSpline
 70
8
 71
3
 72
8
 73
4
 74
0
 40
0
 40
0
 40
0
 40
0
 40
1
 40
1
 40
1
 40
1
 10
18.562589
 20
2.562425
 30
0.0
 10
19.029497
 20
2.556178
 30
0.0
 10
19.498699
 20
2.762375
 30
0.0
 10
19.489137
 20
3.187450
 30
0.0
  0
LWPOLYLINE
  5
12d
100
AcDbEntity
  8
Ebene_1
 62
7
100
AcDbPolyline
 90
4
 70
0
 10
8.621585
 20
3.211408
 30
0.0
 10
8.604282
 20
9.474472
 30
0.0
 10
17.630310
 20
9.272798
 30
0.0
 10
17.649690
 20
3.201935
 30
0.0
  0
SPLINE
  5
12e
100
AcDbEntity
  8
Ebene_1
 62
7
100
AcDbSpline
 70
8
 71
3
 72
8
 73
4
 74
0
 40
0
 40
0
 40
0
 40
0
 40
1
 40
1
 40
1
 40
1
 10
19.453048
 20
16.887250
 30
0.0
 10
19.456761
 20
17.231203
 30
0.0
 10
19.007277
 20
17.540747
 30
0.0
 10
18.554517
 20
17.546804
 30
0.0
  0
LWPOLYLINE
  5
12f
100
AcDbEntity
  8
Ebene_1
 62
7
100
AcDbPolyline
 90
2
 70
0
 10
19.489137
 20
3.187450
 30
0.0
 10
19.453048
 20
16.887250
 30
0.0
  0
LWPOLYLINE
  5
130
100
AcDbEntity
  8
Ebene_1
 62
7
100
AcDbPolyline
 90
1
 70
1
 10
18.554517
 20
17.546804
 30
0.0
  0
ENDSEC
  0
SECTION
  2
OBJECTS
  0
DICTIONARY
  5
C
330
0
100
AcDbDictionary
  3
ACAD_GROUP
350
D
  3
ACAD_MLINESTYLE
350
17
  0
DICTIONARY
  5
D
330
C
100
AcDbDictionary
  0
DICTIONARY
  5
1A
330
C
100
AcDbDictionary
  0
DICTIONARY
  5
17
330
C
100
AcDbDictionary
  3
STANDARD
350
18
  0
DICTIONARY
  5
19
330
C
100
AcDbDictionary
  0
ENDSEC
  0
EOF
