  0
SECTION
  2
HEADER
  9
$ACADVER
  1
AC1014
  9
$HANDSEED
  5
FFFF
  9
$MEASUREMENT
 70
     1
  0
ENDSEC
  0
SECTION
  2
TABLES
  0
TABLE
  2
VPORT
  5
8
330
0
100
AcDbSymbolTable
 70
     4
  0
VPORT
  5
2E
330
8
100
AcDbSymbolTableRecord
100
AcDbViewportTableRecord
  2
*ACTIVE
 70
     0
 10
0.0
 20
0.0
 11
1.0
 21
1.0
 12
210.0
 22
148.5
 13
0.0
 23
0.0
 14
10.0
 24
10.0
 15
10.0
 25
10.0
 16
0.0
 26
0.0
 36
1.0
 17
0.0
 27
0.0
 37
0.0
 40
341.0
 41
1.24
 42
50.0
 43
0.0
 44
0.0
 50
0.0
 51
0.0
 71
     0
 72
   100
 73
     1
 74
     3
 75
     0
 76
     0
 77
     0
 78
     0
  0
ENDTAB
  0
TABLE
  2
LTYPE
  5
5
330
0
100
AcDbSymbolTable
 70
     1
  0
LTYPE
  5
14
330
5
100
AcDbSymbolTableRecord
100
AcDbLinetypeTableRecord
  2
BYBLOCK
 70
     0
  3

 72
    65
 73
     0
 40
0.0
  0
LTYPE
  5
15
330
5
100
AcDbSymbolTableRecord
100
AcDbLinetypeTableRecord
  2
BYLAYER
 70
     0
  3

 72
    65
 73
     0
 40
0.0
  0
LTYPE
  5
16
330
5
100
AcDbSymbolTableRecord
100
AcDbLinetypeTableRecord
  2
CONTINUOUS
 70
     0
  3
Solid line
 72
    65
 73
     0
 40
0.0
  0
ENDTAB
  0
TABLE
  2
LAYER
  5
2
100
AcDbSymbolTable
 70
2
  0
LAYER
  5
50
100
AcDbSymbolTableRecord
100
AcDbLayerTableRecord
  2
0
 70
0
  6
CONTINUOUS
  0
LAYER
  5
51
100
AcDbSymbolTableRecord
100
AcDbLayerTableRecord
  2
Ebene_1
 70
0
  6
CONTINUOUS
  0
ENDTAB
  0
TABLE
  2
STYLE
  5
3
330
0
100
AcDbSymbolTable
 70
     1
  0
STYLE
  5
11
330
3
100
AcDbSymbolTableRecord
100
AcDbTextStyleTableRecord
  2
STANDARD
 70
     0
 40
0.0
 41
1.0
 50
0.0
 71
     0
 42
2.5
  3
txt
  4

  0
ENDTAB
  0
TABLE
  2
VIEW
  5
6
330
0
100
AcDbSymbolTable
 70
     0
  0
ENDTAB
  0
TABLE
  2
UCS
  5
7
330
0
100
AcDbSymbolTable
 70
     0
  0
ENDTAB
  0
TABLE
  2
APPID
  5
9
330
0
100
AcDbSymbolTable
 70
     2
  0
APPID
  5
12
330
9
100
AcDbSymbolTableRecord
100
AcDbRegAppTableRecord
  2
ACAD
 70
     0
  0
ENDTAB
  0
TABLE
  2
DIMSTYLE
  5
A
330
0
100
AcDbSymbolTable
 70
     1
  0
DIMSTYLE
105
27
330
A
100
AcDbSymbolTableRecord
100
AcDbDimStyleTableRecord
  2
ISO-25
 70
     0
  3

  4

  5

  6

  7

 40
1.0
 41
2.5
 42
0.625
 43
3.75
 44
1.25
 45
0.0
 46
0.0
 47
0.0
 48
0.0
140
2.5
141
2.5
142
0.0
143
0.03937007874016
144
1.0
145
0.0
146
1.0
147
0.625
 71
     0
 72
     0
 73
     0
 74
     0
 75
     0
 76
     0
 77
     1
 78
     8
170
     0
171
     3
172
     1
173
     0
174
     0
175
     0
176
     0
177
     0
178
     0
270
     2
271
     2
272
     2
273
     2
274
     3
340
11
275
     0
280
     0
281
     0
282
     0
283
     0
284
     8
285
     0
286
     0
287
     3
288
     0
  0
ENDTAB
  0
TABLE
  2
BLOCK_RECORD
  5
1
330
0
100
AcDbSymbolTable
 70
     1
  0
BLOCK_RECORD
  5
1F
330
1
100
AcDbSymbolTableRecord
100
AcDbBlockTableRecord
  2
*MODEL_SPACE
  0
BLOCK_RECORD
  5
1B
330
1
100
AcDbSymbolTableRecord
100
AcDbBlockTableRecord
  2
*PAPER_SPACE
  0
ENDTAB
  0
ENDSEC
  0
SECTION
  2
BLOCKS
  0
BLOCK
  5
20
330
1F
100
AcDbEntity
  8
0
100
AcDbBlockBegin
  2
*MODEL_SPACE
 70
     0
 10
0.0
 20
0.0
 30
0.0
  3
*MODEL_SPACE
  1

  0
ENDBLK
  5
21
330
1F
100
AcDbEntity
  8
0
100
AcDbBlockEnd
  0
BLOCK
  5
1C
330
1B
100
AcDbEntity
 67
     1
  8
0
100
AcDbBlockBegin
  2
*PAPER_SPACE
  1

  0
ENDBLK
  5
1D
330
1B
100
AcDbEntity
 67
     1
  8
0
100
AcDbBlockEnd
  0
ENDSEC
  0
SECTION
  2
ENTITIES
  0
SPLINE
  5
100
100
AcDbEntity
  8
Ebene_1
 62
7
100
AcDbSpline
 70
8
 71
3
 72
8
 73
4
 74
0
 40
0
 40
0
 40
0
 40
0
 40
1
 40
1
 40
1
 40
1
 10
52.634765
 20
49.671917
 30
0.0
 10
51.208635
 20
49.689054
 30
0.0
 10
49.857032
 20
48.897958
 30
0.0
 10
49.845703
 20
47.955120
 30
0.0
  0
SPLINE
  5
101
100
AcDbEntity
  8
Ebene_1
 62
7
100
AcDbSpline
 70
8
 71
3
 72
8
 73
4
 74
0
 40
0
 40
0
 40
0
 40
0
 40
1
 40
1
 40
1
 40
1
 10
49.069335
 20
43.078656
 30
0.0
 10
49.073955
 20
43.476946
 30
0.0
 10
48.917067
 20
43.860127
 30
0.0
 10
48.634450
 20
44.140813
 30
0.0
  0
SPLINE
  5
102
100
AcDbEntity
  8
Ebene_1
 62
7
100
AcDbSpline
 70
8
 71
3
 72
8
 73
4
 74
0
 40
0
 40
0
 40
0
 40
0
 40
1
 40
1
 40
1
 40
1
 10
48.634450
 20
44.140813
 30
0.0
 10
48.351833
 20
44.421498
 30
0.0
 10
47.967585
 20
44.575754
 30
0.0
 10
47.569335
 20
44.568402
 30
0.0
  0
SPLINE
  5
103
100
AcDbEntity
  8
Ebene_1
 62
7
100
AcDbSpline
 70
8
 71
3
 72
8
 73
4
 74
0
 40
0
 40
0
 40
0
 40
0
 40
1
 40
1
 40
1
 40
1
 10
47.569335
 20
44.568402
 30
0.0
 10
47.178677
 20
44.561277
 30
0.0
 10
46.806857
 20
44.399224
 30
0.0
 10
46.535704
 20
44.117905
 30
0.0
  0
SPLINE
  5
104
100
AcDbEntity
  8
Ebene_1
 62
7
100
AcDbSpline
 70
8
 71
3
 72
8
 73
4
 74
0
 40
0
 40
0
 40
0
 40
0
 40
1
 40
1
 40
1
 40
1
 10
46.535704
 20
44.117905
 30
0.0
 10
46.264550
 20
43.836587
 30
0.0
 10
46.116284
 20
43.459057
 30
0.0
 10
46.123535
 20
43.068402
 30
0.0
  0
LWPOLYLINE
  5
105
100
AcDbEntity
  8
Ebene_1
 62
7
100
AcDbPolyline
 90
4
 70
0
 10
49.845703
 20
47.955120
 30
0.0
 10
49.894043
 20
31.141644
 30
0.0
 10
49.108886
 20
31.157757
 30
0.0
 10
49.069335
 20
43.078656
 30
0.0
  0
SPLINE
  5
106
100
AcDbEntity
  8
Ebene_1
 62
7
100
AcDbSpline
 70
8
 71
3
 72
8
 73
4
 74
0
 40
0
 40
0
 40
0
 40
0
 40
1
 40
1
 40
1
 40
1
 10
45.366210
 20
31.232464
 30
0.0
 10
45.366210
 20
31.232464
 30
0.0
 10
45.320800
 20
43.239789
 30
0.0
 10
45.320800
 20
43.239789
 30
0.0
  0
SPLINE
  5
107
100
AcDbEntity
  8
Ebene_1
 62
7
100
AcDbSpline
 70
8
 71
3
 72
8
 73
4
 74
0
 40
0
 40
0
 40
0
 40
0
 40
1
 40
1
 40
1
 40
1
 10
45.320800
 20
43.239789
 30
0.0
 10
45.325420
 20
43.638079
 30
0.0
 10
45.168532
 20
44.021260
 30
0.0
 10
44.885915
 20
44.301946
 30
0.0
  0
SPLINE
  5
108
100
AcDbEntity
  8
Ebene_1
 62
7
100
AcDbSpline
 70
8
 71
3
 72
8
 73
4
 74
0
 40
0
 40
0
 40
0
 40
0
 40
1
 40
1
 40
1
 40
1
 10
44.885915
 20
44.301946
 30
0.0
 10
44.603298
 20
44.582631
 30
0.0
 10
44.219049
 20
44.736887
 30
0.0
 10
43.820800
 20
44.729535
 30
0.0
  0
LWPOLYLINE
  5
109
100
AcDbEntity
  8
Ebene_1
 62
7
100
AcDbPolyline
 90
3
 70
0
 10
46.123535
 20
43.068402
 30
0.0
 10
46.163085
 20
31.216351
 30
0.0
 10
45.366210
 20
31.232464
 30
0.0
  0
SPLINE
  5
10a
100
AcDbEntity
  8
Ebene_1
 62
7
100
AcDbSpline
 70
8
 71
3
 72
8
 73
4
 74
0
 40
0
 40
0
 40
0
 40
0
 40
1
 40
1
 40
1
 40
1
 10
43.820800
 20
44.728070
 30
0.0
 10
43.007859
 20
44.712435
 30
0.0
 10
42.361360
 20
44.041021
 30
0.0
 10
42.376464
 20
43.228070
 30
0.0
  0
LWPOLYLINE
  5
10b
100
AcDbEntity
  8
Ebene_1
 62
7
100
AcDbPolyline
 90
2
 70
0
 10
43.820800
 20
44.729535
 30
0.0
 10
43.820800
 20
44.728070
 30
0.0
  0
SPLINE
  5
10c
100
AcDbEntity
  8
Ebene_1
 62
7
100
AcDbSpline
 70
8
 71
3
 72
8
 73
4
 74
0
 40
0
 40
0
 40
0
 40
0
 40
1
 40
1
 40
1
 40
1
 10
41.547362
 20
31.308636
 30
0.0
 10
41.596109
 20
31.460533
 30
0.0
 10
41.619856
 20
31.619339
 30
0.0
 10
41.617675
 20
31.778851
 30
0.0
  0
SPLINE
  5
10d
100
AcDbEntity
  8
Ebene_1
 62
7
100
AcDbSpline
 70
8
 71
3
 72
8
 73
4
 74
0
 40
0
 40
0
 40
0
 40
0
 40
1
 40
1
 40
1
 40
1
 10
41.617675
 20
31.778851
 30
0.0
 10
41.617675
 20
31.778851
 30
0.0
 10
41.572265
 20
44.839398
 30
0.0
 10
41.572265
 20
44.839398
 30
0.0
  0
SPLINE
  5
10e
100
AcDbEntity
  8
Ebene_1
 62
7
100
AcDbSpline
 70
8
 71
3
 72
8
 73
4
 74
0
 40
0
 40
0
 40
0
 40
0
 40
1
 40
1
 40
1
 40
1
 10
41.572265
 20
44.839398
 30
0.0
 10
41.576886
 20
45.237688
 30
0.0
 10
41.419998
 20
45.620870
 30
0.0
 10
41.137381
 20
45.901555
 30
0.0
  0
SPLINE
  5
10f
100
AcDbEntity
  8
Ebene_1
 62
7
100
AcDbSpline
 70
8
 71
3
 72
8
 73
4
 74
0
 40
0
 40
0
 40
0
 40
0
 40
1
 40
1
 40
1
 40
1
 10
41.137381
 20
45.901555
 30
0.0
 10
40.854764
 20
46.182240
 30
0.0
 10
40.470515
 20
46.336497
 30
0.0
 10
40.072265
 20
46.329144
 30
0.0
  0
SPLINE
  5
110
100
AcDbEntity
  8
Ebene_1
 62
7
100
AcDbSpline
 70
8
 71
3
 72
8
 73
4
 74
0
 40
0
 40
0
 40
0
 40
0
 40
1
 40
1
 40
1
 40
1
 10
40.072265
 20
46.329144
 30
0.0
 10
39.681605
 20
46.321639
 30
0.0
 10
39.309935
 20
46.159215
 30
0.0
 10
39.039054
 20
45.877620
 30
0.0
  0
SPLINE
  5
111
100
AcDbEntity
  8
Ebene_1
 62
7
100
AcDbSpline
 70
8
 71
3
 72
8
 73
4
 74
0
 40
0
 40
0
 40
0
 40
0
 40
1
 40
1
 40
1
 40
1
 10
39.039054
 20
45.877620
 30
0.0
 10
38.768174
 20
45.596025
 30
0.0
 10
38.620282
 20
45.218337
 30
0.0
 10
38.627929
 20
44.827680
 30
0.0
  0
SPLINE
  5
112
100
AcDbEntity
  8
Ebene_1
 62
7
100
AcDbSpline
 70
8
 71
3
 72
8
 73
4
 74
0
 40
0
 40
0
 40
0
 40
0
 40
1
 40
1
 40
1
 40
1
 10
38.627929
 20
44.827680
 30
0.0
 10
38.627929
 20
44.827680
 30
0.0
 10
38.671875
 20
31.768597
 30
0.0
 10
38.671875
 20
31.768597
 30
0.0
  0
SPLINE
  5
113
100
AcDbEntity
  8
Ebene_1
 62
7
100
AcDbSpline
 70
8
 71
3
 72
8
 73
4
 74
0
 40
0
 40
0
 40
0
 40
0
 40
1
 40
1
 40
1
 40
1
 10
38.671875
 20
31.768597
 30
0.0
 10
38.670283
 20
31.632597
 30
0.0
 10
38.687537
 20
31.497032
 30
0.0
 10
38.723144
 20
31.365765
 30
0.0
  0
LWPOLYLINE
  5
114
100
AcDbEntity
  8
Ebene_1
 62
7
100
AcDbPolyline
 90
3
 70
0
 10
42.376464
 20
43.228070
 30
0.0
 10
42.421874
 20
31.291058
 30
0.0
 10
41.547362
 20
31.308636
 30
0.0
  0
SPLINE
  5
115
100
AcDbEntity
  8
Ebene_1
 62
7
100
AcDbSpline
 70
8
 71
3
 72
8
 73
4
 74
0
 40
0
 40
0
 40
0
 40
0
 40
1
 40
1
 40
1
 40
1
 10
37.832519
 20
31.383343
 30
0.0
 10
37.863078
 20
31.507430
 30
0.0
 10
37.877358
 20
31.634966
 30
0.0
 10
37.875000
 20
31.762738
 30
0.0
  0
SPLINE
  5
116
100
AcDbEntity
  8
Ebene_1
 62
7
100
AcDbSpline
 70
8
 71
3
 72
8
 73
4
 74
0
 40
0
 40
0
 40
0
 40
0
 40
1
 40
1
 40
1
 40
1
 10
37.875000
 20
31.762738
 30
0.0
 10
37.875000
 20
31.762738
 30
0.0
 10
37.847168
 20
40.034710
 30
0.0
 10
37.847168
 20
40.034710
 30
0.0
  0
SPLINE
  5
117
100
AcDbEntity
  8
Ebene_1
 62
7
100
AcDbSpline
 70
8
 71
3
 72
8
 73
4
 74
0
 40
0
 40
0
 40
0
 40
0
 40
1
 40
1
 40
1
 40
1
 10
37.847168
 20
40.034710
 30
0.0
 10
37.851389
 20
40.432748
 30
0.0
 10
37.694325
 20
40.815548
 30
0.0
 10
37.411753
 20
41.095913
 30
0.0
  0
SPLINE
  5
118
100
AcDbEntity
  8
Ebene_1
 62
7
100
AcDbSpline
 70
8
 71
3
 72
8
 73
4
 74
0
 40
0
 40
0
 40
0
 40
0
 40
1
 40
1
 40
1
 40
1
 10
37.411753
 20
41.095913
 30
0.0
 10
37.129180
 20
41.376278
 30
0.0
 10
36.745160
 20
41.530335
 30
0.0
 10
36.347168
 20
41.522992
 30
0.0
  0
SPLINE
  5
119
100
AcDbEntity
  8
Ebene_1
 62
7
100
AcDbSpline
 70
8
 71
3
 72
8
 73
4
 74
0
 40
0
 40
0
 40
0
 40
0
 40
1
 40
1
 40
1
 40
1
 10
36.347168
 20
41.522992
 30
0.0
 10
35.956510
 20
41.515868
 30
0.0
 10
35.584690
 20
41.353814
 30
0.0
 10
35.313536
 20
41.072496
 30
0.0
  0
SPLINE
  5
11a
100
AcDbEntity
  8
Ebene_1
 62
7
100
AcDbSpline
 70
8
 71
3
 72
8
 73
4
 74
0
 40
0
 40
0
 40
0
 40
0
 40
1
 40
1
 40
1
 40
1
 10
35.313536
 20
41.072496
 30
0.0
 10
35.042382
 20
40.791177
 30
0.0
 10
34.894116
 20
40.413648
 30
0.0
 10
34.901367
 20
40.022992
 30
0.0
  0
SPLINE
  5
11b
100
AcDbEntity
  8
Ebene_1
 62
7
100
AcDbSpline
 70
8
 71
3
 72
8
 73
4
 74
0
 40
0
 40
0
 40
0
 40
0
 40
1
 40
1
 40
1
 40
1
 10
34.901367
 20
40.022992
 30
0.0
 10
34.901367
 20
40.022992
 30
0.0
 10
34.929199
 20
31.751019
 30
0.0
 10
34.929199
 20
31.751019
 30
0.0
  0
SPLINE
  5
11c
100
AcDbEntity
  8
Ebene_1
 62
7
100
AcDbSpline
 70
8
 71
3
 72
8
 73
4
 74
0
 40
0
 40
0
 40
0
 40
0
 40
1
 40
1
 40
1
 40
1
 10
34.929199
 20
31.751019
 30
0.0
 10
34.928531
 20
31.647196
 30
0.0
 10
34.938842
 20
31.543592
 30
0.0
 10
34.959960
 20
31.441937
 30
0.0
  0
LWPOLYLINE
  5
11d
100
AcDbEntity
  8
Ebene_1
 62
7
100
AcDbPolyline
 90
2
 70
0
 10
38.723144
 20
31.365765
 30
0.0
 10
37.832519
 20
31.383343
 30
0.0
  0
SPLINE
  5
11e
100
AcDbEntity
  8
Ebene_1
 62
7
100
AcDbSpline
 70
8
 71
3
 72
8
 73
4
 74
0
 40
0
 40
0
 40
0
 40
0
 40
1
 40
1
 40
1
 40
1
 10
34.217285
 20
31.456585
 30
0.0
 10
34.217285
 20
31.456585
 30
0.0
 10
34.192383
 20
39.064984
 30
0.0
 10
34.192383
 20
39.064984
 30
0.0
  0
SPLINE
  5
11f
100
AcDbEntity
  8
Ebene_1
 62
7
100
AcDbSpline
 70
8
 71
3
 72
8
 73
4
 74
0
 40
0
 40
0
 40
0
 40
0
 40
1
 40
1
 40
1
 40
1
 10
34.192383
 20
39.064984
 30
0.0
 10
34.197003
 20
39.463275
 30
0.0
 10
34.040115
 20
39.846456
 30
0.0
 10
33.757498
 20
40.127141
 30
0.0
  0
SPLINE
  5
120
100
AcDbEntity
  8
Ebene_1
 62
7
100
AcDbSpline
 70
8
 71
3
 72
8
 73
4
 74
0
 40
0
 40
0
 40
0
 40
0
 40
1
 40
1
 40
1
 40
1
 10
33.757498
 20
40.127141
 30
0.0
 10
33.474880
 20
40.407826
 30
0.0
 10
33.090632
 20
40.562082
 30
0.0
 10
32.692383
 20
40.554730
 30
0.0
  0
SPLINE
  5
121
100
AcDbEntity
  8
Ebene_1
 62
7
100
AcDbSpline
 70
8
 71
3
 72
8
 73
4
 74
0
 40
0
 40
0
 40
0
 40
0
 40
1
 40
1
 40
1
 40
1
 10
32.692383
 20
40.554730
 30
0.0
 10
32.301722
 20
40.547225
 30
0.0
 10
31.930052
 20
40.384801
 30
0.0
 10
31.659171
 20
40.103206
 30
0.0
  0
SPLINE
  5
122
100
AcDbEntity
  8
Ebene_1
 62
7
100
AcDbSpline
 70
8
 71
3
 72
8
 73
4
 74
0
 40
0
 40
0
 40
0
 40
0
 40
1
 40
1
 40
1
 40
1
 10
31.659171
 20
40.103206
 30
0.0
 10
31.388291
 20
39.821611
 30
0.0
 10
31.240399
 20
39.443923
 30
0.0
 10
31.248046
 20
39.053265
 30
0.0
  0
LWPOLYLINE
  5
123
100
AcDbEntity
  8
Ebene_1
 62
7
100
AcDbPolyline
 90
2
 70
0
 10
34.959960
 20
31.441937
 30
0.0
 10
34.217285
 20
31.456585
 30
0.0
  0
SPLINE
  5
124
100
AcDbEntity
  8
Ebene_1
 62
7
100
AcDbSpline
 70
8
 71
3
 72
8
 73
4
 74
0
 40
0
 40
0
 40
0
 40
0
 40
1
 40
1
 40
1
 40
1
 10
30.471679
 20
31.531293
 30
0.0
 10
30.442441
 20
39.764060
 30
0.0
 10
30.433593
 20
42.797406
 30
0.0
 10
30.433593
 20
42.797406
 30
0.0
  0
SPLINE
  5
125
100
AcDbEntity
  8
Ebene_1
 62
7
100
AcDbSpline
 70
8
 71
3
 72
8
 73
4
 74
0
 40
0
 40
0
 40
0
 40
0
 40
1
 40
1
 40
1
 40
1
 10
30.433593
 20
42.797406
 30
0.0
 10
30.437815
 20
43.195443
 30
0.0
 10
30.280751
 20
43.578243
 30
0.0
 10
29.998178
 20
43.858608
 30
0.0
  0
SPLINE
  5
126
100
AcDbEntity
  8
Ebene_1
 62
7
100
AcDbSpline
 70
8
 71
3
 72
8
 73
4
 74
0
 40
0
 40
0
 40
0
 40
0
 40
1
 40
1
 40
1
 40
1
 10
29.998178
 20
43.858608
 30
0.0
 10
29.715605
 20
44.138973
 30
0.0
 10
29.331586
 20
44.293030
 30
0.0
 10
28.933593
 20
44.285687
 30
0.0
  0
SPLINE
  5
127
100
AcDbEntity
  8
Ebene_1
 62
7
100
AcDbSpline
 70
8
 71
3
 72
8
 73
4
 74
0
 40
0
 40
0
 40
0
 40
0
 40
1
 40
1
 40
1
 40
1
 10
28.933593
 20
44.285687
 30
0.0
 10
28.542935
 20
44.278562
 30
0.0
 10
28.171116
 20
44.116509
 30
0.0
 10
27.899962
 20
43.835190
 30
0.0
  0
SPLINE
  5
128
100
AcDbEntity
  8
Ebene_1
 62
7
100
AcDbSpline
 70
8
 71
3
 72
8
 73
4
 74
0
 40
0
 40
0
 40
0
 40
0
 40
1
 40
1
 40
1
 40
1
 10
27.899962
 20
43.835190
 30
0.0
 10
27.628808
 20
43.553872
 30
0.0
 10
27.480542
 20
43.176342
 30
0.0
 10
27.487793
 20
42.785687
 30
0.0
  0
SPLINE
  5
129
100
AcDbEntity
  8
Ebene_1
 62
7
100
AcDbSpline
 70
8
 71
3
 72
8
 73
4
 74
0
 40
0
 40
0
 40
0
 40
0
 40
1
 40
1
 40
1
 40
1
 10
27.487793
 20
42.785687
 30
0.0
 10
27.487793
 20
42.785687
 30
0.0
 10
27.497223
 20
39.668604
 30
0.0
 10
27.525879
 20
31.591351
 30
0.0
  0
LWPOLYLINE
  5
12a
100
AcDbEntity
  8
Ebene_1
 62
7
100
AcDbPolyline
 90
3
 70
0
 10
31.248046
 20
39.053265
 30
0.0
 10
31.272949
 20
31.515180
 30
0.0
 10
30.471679
 20
31.531293
 30
0.0
  0
SPLINE
  5
12b
100
AcDbEntity
  8
Ebene_1
 62
7
100
AcDbSpline
 70
8
 71
3
 72
8
 73
4
 74
0
 40
0
 40
0
 40
0
 40
0
 40
1
 40
1
 40
1
 40
1
 10
26.816894
 20
31.605999
 30
0.0
 10
26.773869
 20
43.387268
 30
0.0
 10
26.768554
 20
44.307660
 30
0.0
 10
26.768554
 20
44.307660
 30
0.0
  0
SPLINE
  5
12c
100
AcDbEntity
  8
Ebene_1
 62
7
100
AcDbSpline
 70
8
 71
3
 72
8
 73
4
 74
0
 40
0
 40
0
 40
0
 40
0
 40
1
 40
1
 40
1
 40
1
 10
26.768554
 20
44.307660
 30
0.0
 10
26.771582
 20
44.704939
 30
0.0
 10
26.613992
 20
45.086594
 30
0.0
 10
26.331552
 20
45.366000
 30
0.0
  0
SPLINE
  5
12d
100
AcDbEntity
  8
Ebene_1
 62
7
100
AcDbSpline
 70
8
 71
3
 72
8
 73
4
 74
0
 40
0
 40
0
 40
0
 40
0
 40
1
 40
1
 40
1
 40
1
 10
26.331552
 20
45.366000
 30
0.0
 10
26.049112
 20
45.645405
 30
0.0
 10
25.665778
 20
45.798865
 30
0.0
 10
25.268554
 20
45.791547
 30
0.0
  0
SPLINE
  5
12e
100
AcDbEntity
  8
Ebene_1
 62
7
100
AcDbSpline
 70
8
 71
3
 72
8
 73
4
 74
0
 40
0
 40
0
 40
0
 40
0
 40
1
 40
1
 40
1
 40
1
 10
25.268554
 20
45.791547
 30
0.0
 10
24.457362
 20
45.776699
 30
0.0
 10
23.810924
 20
45.108647
 30
0.0
 10
23.822754
 20
44.297406
 30
0.0
  0
SPLINE
  5
12f
100
AcDbEntity
  8
Ebene_1
 62
7
100
AcDbSpline
 70
8
 71
3
 72
8
 73
4
 74
0
 40
0
 40
0
 40
0
 40
0
 40
1
 40
1
 40
1
 40
1
 10
23.822754
 20
44.297406
 30
0.0
 10
23.822754
 20
44.297406
 30
0.0
 10
23.828755
 20
43.252241
 30
0.0
 10
23.871093
 20
31.664593
 30
0.0
  0
LWPOLYLINE
  5
130
100
AcDbEntity
  8
Ebene_1
 62
7
100
AcDbPolyline
 90
2
 70
0
 10
27.525879
 20
31.591351
 30
0.0
 10
26.816894
 20
31.605999
 30
0.0
  0
SPLINE
  5
131
100
AcDbEntity
  8
Ebene_1
 62
7
100
AcDbSpline
 70
8
 71
3
 72
8
 73
4
 74
0
 40
0
 40
0
 40
0
 40
0
 40
1
 40
1
 40
1
 40
1
 10
23.080078
 20
47.952191
 30
0.0
 10
23.093673
 20
49.083610
 30
0.0
 10
21.716749
 20
49.639675
 30
0.0
 10
20.374512
 20
49.655804
 30
0.0
  0
SPLINE
  5
132
100
AcDbEntity
  8
Ebene_1
 62
7
100
AcDbSpline
 70
8
 71
3
 72
8
 73
4
 74
0
 40
0
 40
0
 40
0
 40
0
 40
1
 40
1
 40
1
 40
1
 10
20.374512
 20
49.655804
 30
0.0
 10
18.990329
 20
49.672437
 30
0.0
 10
17.598115
 20
49.123664
 30
0.0
 10
17.626465
 20
47.991742
 30
0.0
  0
LWPOLYLINE
  5
133
100
AcDbEntity
  8
Ebene_1
 62
7
100
AcDbPolyline
 90
3
 70
0
 10
23.871093
 20
31.664593
 30
0.0
 10
23.135742
 20
31.679242
 30
0.0
 10
23.080078
 20
47.952191
 30
0.0
  0
SPLINE
  5
134
100
AcDbEntity
  8
Ebene_1
 62
7
100
AcDbSpline
 70
8
 71
3
 72
8
 73
4
 74
0
 40
0
 40
0
 40
0
 40
0
 40
1
 40
1
 40
1
 40
1
 10
17.677734
 20
30.330120
 30
0.0
 10
16.679066
 20
30.141647
 30
0.0
 10
15.557782
 20
29.667609
 30
0.0
 10
14.759766
 20
28.506390
 30
0.0
  0
SPLINE
  5
135
100
AcDbEntity
  8
Ebene_1
 62
7
100
AcDbSpline
 70
8
 71
3
 72
8
 73
4
 74
0
 40
0
 40
0
 40
0
 40
0
 40
1
 40
1
 40
1
 40
1
 10
14.759766
 20
28.506390
 30
0.0
 10
14.114517
 20
27.567499
 30
0.0
 10
13.303655
 20
27.206589
 30
0.0
 10
12.473144
 20
27.388714
 30
0.0
  0
SPLINE
  5
136
100
AcDbEntity
  8
Ebene_1
 62
7
100
AcDbSpline
 70
8
 71
3
 72
8
 73
4
 74
0
 40
0
 40
0
 40
0
 40
0
 40
1
 40
1
 40
1
 40
1
 10
12.473144
 20
27.388714
 30
0.0
 10
11.698318
 20
27.558762
 30
0.0
 10
10.787965
 20
28.287428
 30
0.0
 10
10.051758
 20
29.887738
 30
0.0
  0
LWPOLYLINE
  5
137
100
AcDbEntity
  8
Ebene_1
 62
7
100
AcDbPolyline
 90
2
 70
0
 10
17.626465
 20
47.991742
 30
0.0
 10
17.677734
 20
30.330120
 30
0.0
  0
SPLINE
  5
138
100
AcDbEntity
  8
Ebene_1
 62
7
100
AcDbSpline
 70
8
 71
3
 72
8
 73
4
 74
0
 40
0
 40
0
 40
0
 40
0
 40
1
 40
1
 40
1
 40
1
 10
8.857910
 20
29.366253
 30
0.0
 10
9.710907
 20
27.501946
 30
0.0
 10
10.893977
 20
26.401364
 30
0.0
 10
12.196289
 20
26.115766
 30
0.0
  0
SPLINE
  5
139
100
AcDbEntity
  8
Ebene_1
 62
7
100
AcDbSpline
 70
8
 71
3
 72
8
 73
4
 74
0
 40
0
 40
0
 40
0
 40
0
 40
1
 40
1
 40
1
 40
1
 10
12.196289
 20
26.115766
 30
0.0
 10
13.585942
 20
25.811013
 30
0.0
 10
14.965117
 20
26.507467
 30
0.0
 10
15.833496
 20
27.771039
 30
0.0
  0
SPLINE
  5
13a
100
AcDbEntity
  8
Ebene_1
 62
7
100
AcDbSpline
 70
8
 71
3
 72
8
 73
4
 74
0
 40
0
 40
0
 40
0
 40
0
 40
1
 40
1
 40
1
 40
1
 10
15.833496
 20
27.771039
 30
0.0
 10
16.325428
 20
28.486855
 30
0.0
 10
17.018679
 20
28.835799
 30
0.0
 10
17.682129
 20
29.004437
 30
0.0
  0
LWPOLYLINE
  5
13b
100
AcDbEntity
  8
Ebene_1
 62
7
100
AcDbPolyline
 90
6
 70
0
 10
10.051758
 20
29.887738
 30
0.0
 10
10.398925
 20
30.038617
 30
0.0
 10
8.374512
 20
38.944867
 30
0.0
 10
3.181641
 20
36.743207
 30
0.0
 10
8.285156
 20
29.115765
 30
0.0
 10
8.857910
 20
29.366253
 30
0.0
  0
SPLINE
  5
13c
100
AcDbEntity
  8
Ebene_1
 62
7
100
AcDbSpline
 70
8
 71
3
 72
8
 73
4
 74
0
 40
0
 40
0
 40
0
 40
0
 40
1
 40
1
 40
1
 40
1
 10
17.733398
 20
11.509808
 30
0.0
 10
17.720126
 20
10.405307
 30
0.0
 10
19.055711
 20
9.823789
 30
0.0
 10
20.397949
 20
9.807660
 30
0.0
  0
SPLINE
  5
13d
100
AcDbEntity
  8
Ebene_1
 62
7
100
AcDbSpline
 70
8
 71
3
 72
8
 73
4
 74
0
 40
0
 40
0
 40
0
 40
0
 40
1
 40
1
 40
1
 40
1
 10
20.397949
 20
9.807660
 30
0.0
 10
21.782132
 20
9.791027
 30
0.0
 10
23.215360
 20
10.366144
 30
0.0
 10
23.187012
 20
11.498089
 30
0.0
  0
LWPOLYLINE
  5
13e
100
AcDbEntity
  8
Ebene_1
 62
7
100
AcDbPolyline
 90
2
 70
0
 10
17.682129
 20
29.004437
 30
0.0
 10
17.733398
 20
11.509808
 30
0.0
  0
SPLINE
  5
13f
100
AcDbEntity
  8
Ebene_1
 62
7
100
AcDbSpline
 70
8
 71
3
 72
8
 73
4
 74
0
 40
0
 40
0
 40
0
 40
0
 40
1
 40
1
 40
1
 40
1
 10
49.952636
 20
11.473187
 30
0.0
 10
49.939040
 20
10.341769
 30
0.0
 10
51.315963
 20
9.785703
 30
0.0
 10
52.658203
 20
9.769574
 30
0.0
  0
SPLINE
  5
140
100
AcDbEntity
  8
Ebene_1
 62
7
100
AcDbSpline
 70
8
 71
3
 72
8
 73
4
 74
0
 40
0
 40
0
 40
0
 40
0
 40
1
 40
1
 40
1
 40
1
 10
52.658203
 20
9.769574
 30
0.0
 10
54.042385
 20
9.752941
 30
0.0
 10
55.433136
 20
10.301713
 30
0.0
 10
55.404785
 20
11.433637
 30
0.0
  0
LWPOLYLINE
  5
141
100
AcDbEntity
  8
Ebene_1
 62
7
100
AcDbPolyline
 90
4
 70
0
 10
23.187012
 20
11.498089
 30
0.0
 10
23.135742
 20
28.176801
 30
0.0
 10
49.894043
 20
27.639203
 30
0.0
 10
49.952636
 20
11.473187
 30
0.0
  0
SPLINE
  5
142
100
AcDbEntity
  8
Ebene_1
 62
7
100
AcDbSpline
 70
8
 71
3
 72
8
 73
4
 74
0
 40
0
 40
0
 40
0
 40
0
 40
1
 40
1
 40
1
 40
1
 10
55.297851
 20
47.915570
 30
0.0
 10
55.308857
 20
48.831467
 30
0.0
 10
53.977000
 20
49.655788
 30
0.0
 10
52.634765
 20
49.671917
 30
0.0
  0
LWPOLYLINE
  5
143
100
AcDbEntity
  8
Ebene_1
 62
7
100
AcDbPolyline
 90
2
 70
0
 10
55.404785
 20
11.433637
 30
0.0
 10
55.297851
 20
47.915570
 30
0.0
  0
SPLINE
  5
144
100
AcDbEntity
  8
Ebene_1
 62
7
100
AcDbSpline
 70
8
 71
3
 72
8
 73
4
 74
0
 40
0
 40
0
 40
0
 40
0
 40
1
 40
1
 40
1
 40
1
 10
2.706629
 20
37.246347
 30
0.0
 10
1.098732
 20
38.228804
 30
0.0
 10
0.487770
 20
40.263858
 30
0.0
 10
1.288655
 20
41.969477
 30
0.0
  0
SPLINE
  5
145
100
AcDbEntity
  8
Ebene_1
 62
7
100
AcDbSpline
 70
8
 71
3
 72
8
 73
4
 74
0
 40
0
 40
0
 40
0
 40
0
 40
1
 40
1
 40
1
 40
1
 10
1.288655
 20
41.969477
 30
0.0
 10
2.089545
 20
43.675102
 30
0.0
 10
4.045668
 20
44.504766
 30
0.0
 10
5.828588
 20
43.895029
 30
0.0
  0
SPLINE
  5
146
100
AcDbEntity
  8
Ebene_1
 62
7
100
AcDbSpline
 70
8
 71
3
 72
8
 73
4
 74
0
 40
0
 40
0
 40
0
 40
0
 40
1
 40
1
 40
1
 40
1
 10
5.828588
 20
43.895029
 30
0.0
 10
7.611502
 20
43.285285
 30
0.0
 10
8.649918
 20
41.431523
 30
0.0
 10
8.238632
 20
39.592661
 30
0.0
  0
LWPOLYLINE
  5
147
100
AcDbEntity
  8
Ebene_1
 62
7
100
AcDbPolyline
 90
1
 70
1
 10
52.634765
 20
49.671917
 30
0.0
  0
ENDSEC
  0
SECTION
  2
OBJECTS
  0
DICTIONARY
  5
C
330
0
100
AcDbDictionary
  3
ACAD_GROUP
350
D
  3
ACAD_MLINESTYLE
350
17
  0
DICTIONARY
  5
D
330
C
100
AcDbDictionary
  0
DICTIONARY
  5
1A
330
C
100
AcDbDictionary
  0
DICTIONARY
  5
17
330
C
100
AcDbDictionary
  3
STANDARD
350
18
  0
DICTIONARY
  5
19
330
C
100
AcDbDictionary
  0
ENDSEC
  0
EOF
